<svg version="1.1" viewBox="0 0 430 126">
    <g>
        <g fill="#F2C94C">
            <path pid="0" id="Subtract" fill-rule="evenodd" clip-rule="evenodd" d="M123.536 88.481c.568-1.257 1.891-1.986 3.27-2.024 5.325-.149 10.304-3.41 12.385-8.679 2.785-7.048-.672-15.02-7.72-17.803a14.71 14.71 0 00-.232-.09c-1.288-.482-2.297-1.595-2.428-2.964-2.157-22.565-16.601-43.141-39.13-52.04C57.692-7.757 21.517 7.93 8.88 39.92c-12.637 31.988 3.05 68.163 35.04 80.8 31.04 12.262 66.023-2.147 79.615-32.24zm3.608-9.008a7 7 0 10-1.447-13.925 7 7 0 001.447 13.925z"></path>
            <circle cx="9.326" cy="11.118" r="9"></circle>
        </g>
        <g transform="translate(96,96)">
            <text>
                <tspan x="-85" y="-25" font-family="Calibri" font-weight="bolder" font-style="normal" font-size="32" fill="#333333">ШКОЛА</tspan>
            </text>
        </g>      
        <g transform="translate(96,96)">
            <text>
                <tspan x="50" y="-45" font-family="Calibri" font-weight="bolder" font-style="normal" font-size="50" fill="#333333">МАРИНЫ</tspan>
            </text>
        </g>
        <g transform="translate(96,96)">
            <text>
                <tspan x="50" y="10" font-family="Calibri" font-weight="bolder" font-style="normal" font-size="50" fill="#333333">АРДАШЕВОЙ</tspan>
            </text>
        </g>
    </g>
</svg>